<?xml version="1.0" encoding="utf-8"?>
<!-- Generator: Adobe Illustrator 16.0.0, SVG Export Plug-In . SVG Version: 6.00 Build 0)  -->
<!DOCTYPE svg PUBLIC "-//W3C//DTD SVG 1.1//EN" "http://www.w3.org/Graphics/SVG/1.1/DTD/svg11.dtd">
<svg version="1.1" id="Layer_1" xmlns="http://www.w3.org/2000/svg" xmlns:xlink="http://www.w3.org/1999/xlink" x="0px" y="0px"
	 width="612px" height="792px" viewBox="0 0 612 792" enable-background="new 0 0 612 792" xml:space="preserve">
<path fill="#3F469D" stroke="#000000" stroke-miterlimit="10" d="M281.747,375.231c-9.551,4.323-17.502,11.557-22.721,20.574
	c5.218,9.018,13.17,16.251,22.721,20.574c-2.84-6.275-4.427-13.238-4.427-20.574C277.321,388.468,278.907,381.505,281.747,375.231z"
	/>
<path fill="#EE3E7B" stroke="#000000" stroke-miterlimit="10" d="M353.615,395.805c-5.219-9.017-13.17-16.25-22.721-20.573
	c2.84,6.274,4.426,13.237,4.426,20.573c0,7.336-1.586,14.299-4.426,20.574C340.445,412.055,348.396,404.821,353.615,395.805z"/>
<path fill="#ECE82B" stroke="#000000" stroke-miterlimit="10" d="M285.748,420.379c4.323,9.55,11.557,17.502,20.573,22.72
	c9.017-5.218,16.25-13.17,20.574-22.72c-6.274,2.84-13.238,4.426-20.574,4.426S292.021,423.219,285.748,420.379z"/>
<path fill="#BFDA6C" stroke="#000000" stroke-miterlimit="10" d="M306.321,348.51c-9.017,5.218-16.251,13.17-20.574,22.721
	c6.274-2.84,13.237-4.426,20.573-4.426c7.337,0,14.3,1.586,20.574,4.427C322.572,361.68,315.338,353.728,306.321,348.51"/>
<path fill="#89D3DF" stroke="#000000" stroke-miterlimit="10" d="M326.895,375.231c-6.274-2.84-13.237-4.427-20.574-4.427
	c-7.336,0-14.299,1.586-20.573,4.426c-2.84,6.274-4.426,13.237-4.426,20.574c0,7.336,1.586,14.299,4.427,20.574
	c6.274,2.84,13.237,4.426,20.573,4.426s14.3-1.586,20.574-4.426c2.84-6.275,4.426-13.238,4.426-20.574
	C331.32,388.468,329.734,381.506,326.895,375.231z"/>
</svg>
